<svg width="374" height="315" viewBox="0 0 374 315" fill="none" xmlns="http://www.w3.org/2000/svg">
<path d="M0 299.484V212.625C0 207.266 2.85897 202.314 7.49999 199.634L179.5 100.33C184.141 97.6506 189.859 97.6506 194.5 100.33L366.5 199.634C371.141 202.314 374 207.266 374 212.625V299.484C374 311.031 361.5 318.248 351.5 312.474L194.5 221.83C189.859 219.151 184.141 219.151 179.5 221.83L22.5 312.474C12.5 318.248 0 311.031 0 299.484Z" fill="#FF2B87" fill-opacity="0.4"/>
<path d="M0 251.484V164.625C0 159.266 2.85897 154.314 7.49999 151.634L179.5 52.3301C184.141 49.6506 189.859 49.6506 194.5 52.3301L366.5 151.634C371.141 154.314 374 159.266 374 164.625V251.484C374 263.031 361.5 270.248 351.5 264.474L194.5 173.83C189.859 171.151 184.141 171.151 179.5 173.83L22.5 264.474C12.5 270.248 0 263.031 0 251.484Z" fill="#FF2B87" fill-opacity="0.6"/>
<path d="M0 203.484V116.625C0 111.266 2.85897 106.314 7.49999 103.634L179.5 4.33013C184.141 1.65064 189.859 1.65064 194.5 4.33013L366.5 103.634C371.141 106.314 374 111.266 374 116.625V203.484C374 215.031 361.5 222.248 351.5 216.474L194.5 125.83C189.859 123.151 184.141 123.151 179.5 125.83L22.5 216.474C12.5 222.248 0 215.031 0 203.484Z" fill="#FF2B87"/>
</svg>
